<svg width="62" height="42" viewBox="0 0 62 42" fill="none" xmlns="http://www.w3.org/2000/svg">
<mask id="mask0_124_1256" style="mask-type:luminance" maskUnits="userSpaceOnUse" x="0" y="0" width="62" height="42">
<path d="M61.0279 0.770508H0.894531V41.2238H61.0279V0.770508Z" fill="white"/>
</mask>
<g mask="url(#mask0_124_1256)">
<path d="M60.9235 38.6454L40.4397 1.12624C40.2832 0.844667 39.9831 0.711339 39.7091 0.800252C39.4351 0.889165 39.2395 1.18549 39.2395 1.51147V7.80913C39.2395 7.94254 39.2785 8.07587 39.3438 8.19445L53.9563 34.9705H31.4504C31.2286 34.9705 31.0198 35.1039 30.9024 35.3262L29.0889 38.6454C28.9585 38.8677 28.9585 39.164 29.0759 39.4011C29.1933 39.6381 29.402 39.7864 29.6499 39.7864H60.4016C60.6364 39.7864 60.8582 39.6381 60.9756 39.4011C61.093 39.164 61.08 38.8824 60.9626 38.6454H60.9235Z" fill="#636AE8"/>
</g>
<mask id="mask1_124_1256" style="mask-type:luminance" maskUnits="userSpaceOnUse" x="0" y="0" width="62" height="42">
<path d="M61.1011 0.76709H0.967773V41.2204H61.1011V0.76709Z" fill="white"/>
</mask>
<g mask="url(#mask1_124_1256)">
<path d="M32.9459 2.64891C32.8285 2.41183 32.6067 2.26367 32.3719 2.26367H1.62023C1.38539 2.26367 1.16359 2.41183 1.04617 2.64891C0.928747 2.88598 0.941796 3.16755 1.05921 3.40462L21.5429 40.9089C21.6603 41.1312 21.8691 41.2646 22.0909 41.2646C22.1561 41.2646 22.2083 41.2646 22.2735 41.2349C22.5475 41.146 22.7432 40.8497 22.7432 40.5237V34.226C22.7432 34.0927 22.7041 33.9593 22.6388 33.8408L8.03929 7.04981H30.5583C30.7801 7.04981 30.9889 6.91648 31.1063 6.69424L32.9198 3.38979C33.0503 3.16755 33.0503 2.87115 32.9329 2.63407L32.9459 2.64891Z" fill="#ABAEF2"/>
</g>
<mask id="mask2_124_1256" style="mask-type:luminance" maskUnits="userSpaceOnUse" x="0" y="0" width="62" height="42">
<path d="M61.0664 0.777344H0.933105V41.2307H61.0664V0.777344Z" fill="white"/>
</mask>
<g mask="url(#mask2_124_1256)">
<path d="M40.113 0.807088C39.839 0.718175 39.5389 0.851503 39.3823 1.13308L21.5211 33.8364C21.4558 33.9549 21.4167 34.0883 21.4167 34.2216V40.5193C21.4167 40.8453 21.6124 41.1417 21.8864 41.2305C21.9386 41.2453 22.0039 41.2602 22.069 41.2602C22.2909 41.2602 22.4996 41.1268 22.6171 40.9045L40.4783 8.20128C40.5435 8.0827 40.5827 7.94938 40.5827 7.81597V1.51831C40.5827 1.19232 40.387 0.896001 40.113 0.807088Z" fill="#878CED"/>
</g>
</svg>
