<svg width="64.000000" height="64.000000" viewBox="0 0 64 64" fill="none" xmlns="http://www.w3.org/2000/svg" xmlns:xlink="http://www.w3.org/1999/xlink">
	<desc>
			Created with Pixso.
	</desc>
	<defs>
		<clipPath id="clip158_1545">
			<rect id="variants-icon-2 1" rx="0.000000" width="63.000000" height="63.000000" transform="translate(0.500000 0.500000)" fill="white" fill-opacity="0"/>
		</clipPath>
	</defs>
	<rect id="variants-icon-2 1" rx="0.000000" width="63.000000" height="63.000000" transform="translate(0.500000 0.500000)" fill="#FFFFFF" fill-opacity="0"/>
	<g clip-path="url(#clip158_1545)">
		<path id="Vector" d="M49 51L1 51L1 1L63 1L63 51L55 51" stroke="#000000" stroke-opacity="1.000000" stroke-width="2.000000"/>
		<path id="Vector" d="M49 26L49 58L55 58L55 26L49 26Z" stroke="#0399E9" stroke-opacity="1.000000" stroke-width="2.000000"/>
		<path id="Vector" d="M55 58L55 63L49 63L49 58" stroke="#0399E9" stroke-opacity="1.000000" stroke-width="2.000000"/>
		<path id="Vector" d="M49 26L49 22L52 16L55 22L55 26" stroke="#0399E9" stroke-opacity="1.000000" stroke-width="2.000000"/>
		<path id="Vector" d="M52 26L52 58" stroke="#0399E9" stroke-opacity="1.000000" stroke-width="2.000000"/>
		<path id="Vector" d="M1 9L63 9" stroke="#000000" stroke-opacity="1.000000" stroke-width="2.000000"/>
		<path id="Vector" d="M8 5L10 5" stroke="#0399E9" stroke-opacity="1.000000" stroke-width="2.000000"/>
		<path id="Vector" d="M12 5L14 5" stroke="#0399E9" stroke-opacity="1.000000" stroke-width="2.000000"/>
		<path id="Vector" d="M16 5L18 5" stroke="#0399E9" stroke-opacity="1.000000" stroke-width="2.000000"/>
		<path id="Vector" d="M8 17L29 17" stroke="#0399E9" stroke-opacity="1.000000" stroke-width="2.000000"/>
		<path id="Vector" d="M8 23L42 23" stroke="#0399E9" stroke-opacity="1.000000" stroke-width="2.000000"/>
		<path id="Vector" d="M8 27L42 27" stroke="#0399E9" stroke-opacity="1.000000" stroke-width="2.000000"/>
		<path id="Vector" d="M8 31L42 31" stroke="#0399E9" stroke-opacity="1.000000" stroke-width="2.000000"/>
		<path id="Vector" d="M8 43L20 43" stroke="#0399E9" stroke-opacity="1.000000" stroke-width="2.000000"/>
		<path id="Vector" d="M8 35L42 35" stroke="#0399E9" stroke-opacity="1.000000" stroke-width="2.000000"/>
		<path id="Vector" d="M8 39L42 39" stroke="#0399E9" stroke-opacity="1.000000" stroke-width="2.000000"/>
	</g>
</svg>
